<?xml version="1.0" ?><!DOCTYPE svg  PUBLIC '-//W3C//DTD SVG 1.1//EN'  'http://www.w3.org/Graphics/SVG/1.1/DTD/svg11.dtd'><svg enable-background="new 0 0 512 512" height="512px" version="1.1" viewBox="0 0 512 512" width="512px" xml:space="preserve" xmlns="http://www.w3.org/2000/svg" xmlns:xlink="http://www.w3.org/1999/xlink"><g id="Layer_2"><circle cx="255.927" cy="256.414" fill="#3F83C4" r="251.623"/><circle cx="255.928" cy="256.414" fill="#FFFFFF" r="206.335"/><path d="M175.515,187.76c49.326-57.376,140.786-46.05,174.978,20.971c-24.068,0.009-61.758-0.007-82.171,0   c-14.805,0.005-24.364-0.332-34.716,5.115c-12.17,6.403-21.353,18.271-24.558,32.211L175.515,187.76z" fill="#E12A2C"/><path d="M220.699,256.859c0,19.446,15.82,35.265,35.266,35.265c19.444,0,35.265-15.819,35.265-35.265   c0-19.445-15.82-35.266-35.265-35.266C236.519,221.593,220.699,237.414,220.699,256.859z" fill="#3F83C4"/><path d="M269.65,303.019c-19.793,5.879-42.957-0.641-55.645-22.529c-9.686-16.709-35.275-61.264-46.906-81.523   c-40.736,62.401-5.627,147.438,68.326,161.952L269.65,303.019z" fill="#4CB549"/><path d="M288.723,221.593c16.486,15.325,20.078,40.14,8.911,59.381c-8.414,14.496-35.267,59.792-48.28,81.727   c76.195,4.694,131.74-69.942,106.651-141.108H288.723z" fill="#FCD209"/></g></svg>